<mxfile host="app.diagrams.net" agent="Mozilla/5.0 (Windows NT 10.0; Win64; x64) AppleWebKit/537.36 (KHTML, like Gecko) Chrome/140.0.0.0 Safari/537.36" version="28.2.5">
  <diagram name="Page-1" id="tLb4AIol_rdyjm62Ru0d">
    <mxGraphModel dx="870" dy="508" grid="1" gridSize="10" guides="1" tooltips="1" connect="1" arrows="1" fold="1" page="1" pageScale="1" pageWidth="850" pageHeight="1100" math="0" shadow="0">
      <root>
        <mxCell id="0" />
        <mxCell id="1" parent="0" />
        <mxCell id="snD1805vD3F8rMmzbA1E-8" style="edgeStyle=orthogonalEdgeStyle;rounded=0;orthogonalLoop=1;jettySize=auto;html=1;entryX=0.5;entryY=0;entryDx=0;entryDy=0;endArrow=none;endFill=0;fillColor=#ffe6cc;strokeColor=#d79b00;" edge="1" parent="1" source="snD1805vD3F8rMmzbA1E-5" target="snD1805vD3F8rMmzbA1E-7">
          <mxGeometry relative="1" as="geometry" />
        </mxCell>
        <mxCell id="snD1805vD3F8rMmzbA1E-5" value="Hayride Schedule View" style="rounded=0;whiteSpace=wrap;html=1;fillColor=#ffe6cc;strokeColor=#d79b00;" vertex="1" parent="1">
          <mxGeometry x="40" y="80" width="140" height="60" as="geometry" />
        </mxCell>
        <mxCell id="snD1805vD3F8rMmzbA1E-7" value="Hayride Schedule View" style="rounded=0;whiteSpace=wrap;html=1;fillColor=#ffe6cc;strokeColor=#d79b00;" vertex="1" parent="1">
          <mxGeometry x="40" y="440" width="140" height="60" as="geometry" />
        </mxCell>
        <mxCell id="snD1805vD3F8rMmzbA1E-9" value="GET /api/hayrides" style="rounded=0;whiteSpace=wrap;html=1;fillColor=#d5e8d4;strokeColor=#82b366;" vertex="1" parent="1">
          <mxGeometry x="270" y="80" width="120" height="60" as="geometry" />
        </mxCell>
        <mxCell id="snD1805vD3F8rMmzbA1E-11" style="edgeStyle=orthogonalEdgeStyle;rounded=0;orthogonalLoop=1;jettySize=auto;html=1;entryX=0.5;entryY=1;entryDx=0;entryDy=0;endArrow=none;endFill=0;fillColor=#d5e8d4;strokeColor=#82b366;" edge="1" parent="1" source="snD1805vD3F8rMmzbA1E-10" target="snD1805vD3F8rMmzbA1E-9">
          <mxGeometry relative="1" as="geometry" />
        </mxCell>
        <mxCell id="snD1805vD3F8rMmzbA1E-10" value="GET /api/hayrides" style="rounded=0;whiteSpace=wrap;html=1;fillColor=#d5e8d4;strokeColor=#82b366;" vertex="1" parent="1">
          <mxGeometry x="270" y="440" width="120" height="60" as="geometry" />
        </mxCell>
        <mxCell id="snD1805vD3F8rMmzbA1E-12" value="Slot Templates" style="rounded=0;whiteSpace=wrap;html=1;fillColor=#d5e8d4;strokeColor=#82b366;" vertex="1" parent="1">
          <mxGeometry x="450" y="80" width="100" height="60" as="geometry" />
        </mxCell>
        <mxCell id="snD1805vD3F8rMmzbA1E-13" style="edgeStyle=orthogonalEdgeStyle;rounded=0;orthogonalLoop=1;jettySize=auto;html=1;entryX=0.5;entryY=1;entryDx=0;entryDy=0;endArrow=none;endFill=0;fillColor=#d5e8d4;strokeColor=#82b366;" edge="1" parent="1" source="snD1805vD3F8rMmzbA1E-14" target="snD1805vD3F8rMmzbA1E-12">
          <mxGeometry relative="1" as="geometry" />
        </mxCell>
        <mxCell id="snD1805vD3F8rMmzbA1E-14" value="Slot Templates" style="rounded=0;whiteSpace=wrap;html=1;fillColor=#d5e8d4;strokeColor=#82b366;" vertex="1" parent="1">
          <mxGeometry x="450" y="440" width="100" height="60" as="geometry" />
        </mxCell>
        <mxCell id="snD1805vD3F8rMmzbA1E-15" value="Wagon Defaults" style="rounded=0;whiteSpace=wrap;html=1;fillColor=#d5e8d4;strokeColor=#82b366;" vertex="1" parent="1">
          <mxGeometry x="610" y="80" width="100" height="60" as="geometry" />
        </mxCell>
        <mxCell id="snD1805vD3F8rMmzbA1E-16" style="edgeStyle=orthogonalEdgeStyle;rounded=0;orthogonalLoop=1;jettySize=auto;html=1;entryX=0.5;entryY=1;entryDx=0;entryDy=0;endArrow=none;endFill=0;fillColor=#d5e8d4;strokeColor=#82b366;" edge="1" parent="1" source="snD1805vD3F8rMmzbA1E-17" target="snD1805vD3F8rMmzbA1E-15">
          <mxGeometry relative="1" as="geometry" />
        </mxCell>
        <mxCell id="snD1805vD3F8rMmzbA1E-17" value="Wagon Defaults" style="rounded=0;whiteSpace=wrap;html=1;fillColor=#d5e8d4;strokeColor=#82b366;" vertex="1" parent="1">
          <mxGeometry x="610" y="440" width="100" height="60" as="geometry" />
        </mxCell>
        <mxCell id="snD1805vD3F8rMmzbA1E-18" value="Postgres" style="rounded=0;whiteSpace=wrap;html=1;fillColor=#dae8fc;strokeColor=#6c8ebf;" vertex="1" parent="1">
          <mxGeometry x="760" y="80" width="80" height="60" as="geometry" />
        </mxCell>
        <mxCell id="snD1805vD3F8rMmzbA1E-19" style="edgeStyle=orthogonalEdgeStyle;rounded=0;orthogonalLoop=1;jettySize=auto;html=1;entryX=0.5;entryY=1;entryDx=0;entryDy=0;endArrow=none;endFill=0;fillColor=#dae8fc;strokeColor=#6c8ebf;" edge="1" parent="1" source="snD1805vD3F8rMmzbA1E-20" target="snD1805vD3F8rMmzbA1E-18">
          <mxGeometry relative="1" as="geometry" />
        </mxCell>
        <mxCell id="snD1805vD3F8rMmzbA1E-20" value="Postgres" style="rounded=0;whiteSpace=wrap;html=1;fillColor=#dae8fc;strokeColor=#6c8ebf;" vertex="1" parent="1">
          <mxGeometry x="760" y="440" width="80" height="60" as="geometry" />
        </mxCell>
        <mxCell id="snD1805vD3F8rMmzbA1E-21" value="GET /api/hayrides?date=..." style="endArrow=classic;html=1;rounded=0;fillColor=#ffe6cc;strokeColor=#d79b00;" edge="1" parent="1">
          <mxGeometry y="10" width="50" height="50" relative="1" as="geometry">
            <mxPoint x="110" y="180" as="sourcePoint" />
            <mxPoint x="330" y="180" as="targetPoint" />
            <mxPoint as="offset" />
          </mxGeometry>
        </mxCell>
        <mxCell id="snD1805vD3F8rMmzbA1E-22" value="" style="endArrow=classic;html=1;rounded=0;fillColor=#60a917;strokeColor=#2D7600;" edge="1" parent="1">
          <mxGeometry width="50" height="50" relative="1" as="geometry">
            <mxPoint x="330" y="200" as="sourcePoint" />
            <mxPoint x="800" y="200" as="targetPoint" />
          </mxGeometry>
        </mxCell>
        <mxCell id="snD1805vD3F8rMmzbA1E-24" value="select hayride_slots by date" style="edgeLabel;html=1;align=center;verticalAlign=middle;resizable=0;points=[];" vertex="1" connectable="0" parent="snD1805vD3F8rMmzbA1E-22">
          <mxGeometry x="0.1641" y="-1" relative="1" as="geometry">
            <mxPoint x="-44" y="-11" as="offset" />
          </mxGeometry>
        </mxCell>
        <mxCell id="snD1805vD3F8rMmzbA1E-25" value="" style="endArrow=classic;html=1;rounded=0;dashed=1;fillColor=#1ba1e2;strokeColor=#006EAF;" edge="1" parent="1">
          <mxGeometry width="50" height="50" relative="1" as="geometry">
            <mxPoint x="800" y="220" as="sourcePoint" />
            <mxPoint x="330" y="220" as="targetPoint" />
          </mxGeometry>
        </mxCell>
        <mxCell id="snD1805vD3F8rMmzbA1E-27" value="slot rows" style="edgeLabel;html=1;align=center;verticalAlign=middle;resizable=0;points=[];" vertex="1" connectable="0" parent="snD1805vD3F8rMmzbA1E-25">
          <mxGeometry x="-0.0669" y="3" relative="1" as="geometry">
            <mxPoint x="-21" y="-13" as="offset" />
          </mxGeometry>
        </mxCell>
        <mxCell id="snD1805vD3F8rMmzbA1E-29" value="select hayride_wagons by slot ids" style="endArrow=classic;html=1;rounded=0;fillColor=#60a917;strokeColor=#2D7600;" edge="1" parent="1">
          <mxGeometry x="-0.0225" y="10" width="50" height="50" relative="1" as="geometry">
            <mxPoint x="330" y="240" as="sourcePoint" />
            <mxPoint x="800" y="240" as="targetPoint" />
            <mxPoint as="offset" />
          </mxGeometry>
        </mxCell>
        <mxCell id="snD1805vD3F8rMmzbA1E-30" value="wagon rows" style="endArrow=classic;html=1;rounded=0;dashed=1;fillColor=#1ba1e2;strokeColor=#006EAF;" edge="1" parent="1">
          <mxGeometry x="0.0213" y="-10" width="50" height="50" relative="1" as="geometry">
            <mxPoint x="800" y="260" as="sourcePoint" />
            <mxPoint x="330" y="260" as="targetPoint" />
            <mxPoint as="offset" />
          </mxGeometry>
        </mxCell>
        <mxCell id="snD1805vD3F8rMmzbA1E-31" value="" style="endArrow=classic;html=1;rounded=0;fillColor=#60a917;strokeColor=#2D7600;" edge="1" parent="1">
          <mxGeometry width="50" height="50" relative="1" as="geometry">
            <mxPoint x="330" y="280" as="sourcePoint" />
            <mxPoint x="500" y="280" as="targetPoint" />
          </mxGeometry>
        </mxCell>
        <mxCell id="snD1805vD3F8rMmzbA1E-32" value="getSlotsForDate(date)" style="edgeLabel;html=1;align=center;verticalAlign=middle;resizable=0;points=[];" vertex="1" connectable="0" parent="snD1805vD3F8rMmzbA1E-31">
          <mxGeometry x="0.4168" y="3" relative="1" as="geometry">
            <mxPoint x="-31" y="-7" as="offset" />
          </mxGeometry>
        </mxCell>
        <mxCell id="snD1805vD3F8rMmzbA1E-33" value="template slots" style="endArrow=classic;html=1;rounded=0;dashed=1;fillColor=#60a917;strokeColor=#2D7600;" edge="1" parent="1">
          <mxGeometry x="-0.0588" y="-10" width="50" height="50" relative="1" as="geometry">
            <mxPoint x="500" y="300" as="sourcePoint" />
            <mxPoint x="330" y="300" as="targetPoint" />
            <mxPoint as="offset" />
          </mxGeometry>
        </mxCell>
        <mxCell id="snD1805vD3F8rMmzbA1E-34" value="" style="endArrow=classic;html=1;rounded=0;fillColor=#60a917;strokeColor=#2D7600;" edge="1" parent="1">
          <mxGeometry width="50" height="50" relative="1" as="geometry">
            <mxPoint x="330" y="320" as="sourcePoint" />
            <mxPoint x="660" y="320" as="targetPoint" />
          </mxGeometry>
        </mxCell>
        <mxCell id="snD1805vD3F8rMmzbA1E-36" value="getWagonDefaults(id)" style="edgeLabel;html=1;align=center;verticalAlign=middle;resizable=0;points=[];" vertex="1" connectable="0" parent="snD1805vD3F8rMmzbA1E-34">
          <mxGeometry x="-0.0035" y="2" relative="1" as="geometry">
            <mxPoint x="-5" y="-8" as="offset" />
          </mxGeometry>
        </mxCell>
        <mxCell id="snD1805vD3F8rMmzbA1E-37" value="" style="endArrow=classic;html=1;rounded=0;dashed=1;fillColor=#60a917;strokeColor=#2D7600;" edge="1" parent="1">
          <mxGeometry width="50" height="50" relative="1" as="geometry">
            <mxPoint x="660" y="340" as="sourcePoint" />
            <mxPoint x="330" y="340" as="targetPoint" />
          </mxGeometry>
        </mxCell>
        <mxCell id="snD1805vD3F8rMmzbA1E-38" value="default metadata" style="edgeLabel;html=1;align=center;verticalAlign=middle;resizable=0;points=[];" vertex="1" connectable="0" parent="snD1805vD3F8rMmzbA1E-37">
          <mxGeometry x="0.0069" y="-2" relative="1" as="geometry">
            <mxPoint x="-4" y="-8" as="offset" />
          </mxGeometry>
        </mxCell>
        <mxCell id="snD1805vD3F8rMmzbA1E-39" value="mergeSlotWithRoster" style="curved=1;endArrow=classic;html=1;rounded=0;fillColor=#60a917;strokeColor=#2D7600;" edge="1" parent="1">
          <mxGeometry y="10" width="50" height="50" relative="1" as="geometry">
            <mxPoint x="330" y="360" as="sourcePoint" />
            <mxPoint x="330" y="400" as="targetPoint" />
            <Array as="points">
              <mxPoint x="380" y="380" />
            </Array>
            <mxPoint x="6" y="-9" as="offset" />
          </mxGeometry>
        </mxCell>
        <mxCell id="snD1805vD3F8rMmzbA1E-40" value="schedule + meta JSON" style="endArrow=classic;html=1;rounded=0;dashed=1;fillColor=#60a917;strokeColor=#2D7600;" edge="1" parent="1">
          <mxGeometry y="-10" width="50" height="50" relative="1" as="geometry">
            <mxPoint x="330" y="420" as="sourcePoint" />
            <mxPoint x="110" y="420" as="targetPoint" />
            <mxPoint as="offset" />
          </mxGeometry>
        </mxCell>
        <mxCell id="snD1805vD3F8rMmzbA1E-42" value="&lt;h1 style=&quot;margin-top: 0px;&quot;&gt;&lt;span style=&quot;font-size: 17px; text-align: center;&quot;&gt;Hayrides Scheduling System GET flow&lt;/span&gt;&lt;/h1&gt;&lt;p&gt;GET request fetching slots, wagons, templates, merging defaults before returning schedule payload back upstream.&lt;/p&gt;" style="text;html=1;whiteSpace=wrap;overflow=hidden;rounded=0;" vertex="1" parent="1">
          <mxGeometry x="130" y="190" width="180" height="210" as="geometry" />
        </mxCell>
        <mxCell id="snD1805vD3F8rMmzbA1E-45" value="" style="line;strokeWidth=1;rotatable=0;dashed=0;labelPosition=right;align=left;verticalAlign=middle;spacingTop=0;spacingLeft=6;points=[];portConstraint=eastwest;" vertex="1" parent="1">
          <mxGeometry x="130" y="350" width="180" height="10" as="geometry" />
        </mxCell>
      </root>
    </mxGraphModel>
  </diagram>
</mxfile>
